<?xml version="1.0" encoding="utf-8"?>
<svg xmlns="http://www.w3.org/2000/svg" xmlns:xlink="http://www.w3.org/1999/xlink" viewBox="0 0 1440 320">
  <defs>
    <linearGradient id="oceanGradient" x1="0%" y1="0%" x2="100%" y2="0%">
      <stop offset="0%" style="stop-color:#0077b6;stop-opacity:0.7" />
      <stop offset="50%" style="stop-color:#48bfe3;stop-opacity:0.7" />
      <stop offset="100%" style="stop-color:#90e0ef;stop-opacity:0.7" />
    </linearGradient>
  </defs>
  <path fill="url(#oceanGradient)" fill-opacity="1" d="M0,192L48,181.3C96,171,192,149,288,154.7C384,160,480,192,576,202.7C672,213,768,203,864,181.3C960,160,1056,128,1152,138.7C1248,149,1344,203,1392,229.3L1440,256L1440,320L1392,320C1344,320,1248,320,1152,320C1056,320,960,320,864,320C768,320,672,320,576,320C480,320,384,320,288,320C192,320,96,320,48,320L0,320Z"></path>
</svg>